<svg id="Layer_1" data-name="Layer 1" xmlns="http://www.w3.org/2000/svg" viewBox="0 0 336.44 99.08"><defs><style>.cls-1{fill:#231f20;}.cls-2{fill:#ee3124;}.cls-3{fill:#fff;}</style></defs><title>adobe_logo</title><rect class="cls-1" width="336.44" height="99.08"/><polygon class="cls-2" points="62.58 16.87 89.66 16.87 89.66 81.45 62.58 16.87"/><polygon class="cls-2" points="43.51 16.87 16.42 16.87 16.42 81.45 43.51 16.87"/><polygon class="cls-2" points="53.05 40.67 70.3 81.45 59 81.45 53.84 68.46 41.21 68.46 53.05 40.67"/><path class="cls-3" d="M183.16,123.26l-3,14.95h-11L182.91,76h13.42l12.42,62.18h-11l-2.91-14.95Zm10.61-8.76L191.49,101c-.65-3.88-1.48-9.94-2.12-14.14h-.24c-.68,4.23-1.6,10.47-2.29,14.17l-2.45,13.45Z" transform="translate(-61.88 -57.5)"/><path class="cls-3" d="M244.93,74.37v50.94c0,4,.21,9,.37,12.89h-9.71L235,133h-.23a10.82,10.82,0,0,1-9.42,5.93c-9.31,0-13.91-10.24-13.91-23.15,0-15.74,6.87-23.39,14.37-23.39a8,8,0,0,1,7.73,4.68h.19V74.37Zm-11.25,36.06a15.14,15.14,0,0,0-.16-2.68c-.43-3.07-2.08-5.84-4.71-5.84-4.52,0-6.18,6.5-6.18,14.09,0,8.73,2.37,13.7,6,13.7,1.68,0,3.6-.87,4.66-4.52a9.19,9.19,0,0,0,.38-2.85Z" transform="translate(-61.88 -57.5)"/><path class="cls-3" d="M268.14,138.95c-10.36,0-16.87-8.31-16.87-23.15,0-16.19,8.34-23.39,17.12-23.39,10.22,0,16.64,8.7,16.64,23.14,0,18.55-10,23.4-16.8,23.4Zm.21-8.6c4.29,0,5.36-8.06,5.36-14.74,0-6.35-1.06-14.61-5.54-14.61-4.75,0-5.75,8.26-5.75,14.61,0,7.65,1.26,14.74,5.84,14.74Z" transform="translate(-61.88 -57.5)"/><path class="cls-3" d="M291.32,74.37h11.25V97.86h.18c2.21-3.47,5.17-5.45,9.45-5.45,8.48,0,12.73,9.61,12.73,22.16,0,15.87-6.35,24.38-14.57,24.38-3.93,0-6.55-1.74-8.89-6.13h-.23l-.64,5.39h-9.65c.16-3.75.37-8.85.37-12.89Zm11.25,47.75A9.17,9.17,0,0,0,303,125c1.12,3.78,3,4.71,4.57,4.71,4.33,0,6.1-5.49,6.1-14.29,0-8-1.85-13.5-6.16-13.5-2.13,0-3.92,2.31-4.54,4.79a11.83,11.83,0,0,0-.43,2.84Z" transform="translate(-61.88 -57.5)"/><path class="cls-3" d="M340.55,119.31c.14,8.14,4.44,10.79,9.76,10.79a23.68,23.68,0,0,0,8.44-1.56l1.52,8.07a32.94,32.94,0,0,1-12,2.09c-12.08,0-18.67-8.22-18.67-22.25,0-15.07,7.65-24.11,17.63-24.11,9.64,0,15,8,15,21.06a40.75,40.75,0,0,1-.33,6Zm11.33-7.93c.06-6.32-1.8-10.77-5.36-10.77-4.07,0-5.8,5.95-5.94,10.77Z" transform="translate(-61.88 -57.5)"/><path class="cls-3" d="M375.7,74.37a9.12,9.12,0,0,1,0,18.24,9.12,9.12,0,1,1,0-18.24Zm0,1.54a7.59,7.59,0,1,0,7.28,7.58,7.41,7.41,0,0,0-7.28-7.58ZM374,88.76h-1.83V78.63a18.69,18.69,0,0,1,3.05-.28,5.42,5.42,0,0,1,3.3.81,2.53,2.53,0,0,1,.89,2.11,2.45,2.45,0,0,1-2,2.43v.08c.9.16,1.47,1,1.67,2.47a9.28,9.28,0,0,0,.61,2.51h-1.87a7.89,7.89,0,0,1-.65-2.6,1.86,1.86,0,0,0-2.16-1.7H374ZM374,83h1.09c1.34,0,2.44-.44,2.44-1.62,0-.89-.65-1.7-2.36-1.7a9.22,9.22,0,0,0-1.18,0Z" transform="translate(-61.88 -57.5)"/></svg>