<svg id="Layer_1" data-name="Layer 1" xmlns="http://www.w3.org/2000/svg" viewBox="0 0 330.81 430.8"><defs><style>.cls-1{fill:#fff;}</style></defs><title>if</title><path class="cls-1" d="M343.8,342.8c0-23.4,0-26.4-16.2-37.2l-5.4-3.6c-2.4-2.4-2.4-9,.6-10.8,13.8-4.8,48-20.4,61.8-29.4,3,0,5.4,1.2,6,3.6-1.2,21-2.4,49.8-2.4,74.4v108c0,43.2,1.2,49.2,22.8,52.2l12.6,1.8c4.2,3,3,13.2-1.2,15-18-1.2-35.4-1.8-56.4-1.8-21.6,0-39.6.6-56.4,1.8-4.2-1.8-5.4-12-1.2-15L321,500c22.2-3,22.8-9,22.8-52.2Zm49.8-171c0,21.6-15,31.2-31.8,31.2-18.6,0-30.6-13.8-30.6-30,0-19.8,14.4-32.4,32.4-32.4S393.6,155,393.6,171.79Z" transform="translate(-305.79 -85.99)"/><path class="cls-1" d="M505.79,303.8c-10.2,0-10.2,1.2-10.2,17.4V447.8c0,43.2,1.2,50.4,22.8,52.2l21.6,1.8c4.2,3,3,13.2-1.2,15-27-1.2-44.4-1.8-65.4-1.8-21.6,0-39.6.6-57.6,1.8-4.2-1.8-5.4-12-1.2-15l13.8-1.8c22.2-3,22.8-9,22.8-52.2V321.2c0-16.2,0-17.4-12-17.4h-21c-3.6-2.4-4.2-7.8-1.8-11.4l25.8-12.6c4.8-2.4,9-6,9-12,0-34.8,4.2-72,18.6-105.6,15-34.2,48.6-76.2,108-76.2,31.8,0,58.8,14.4,58.8,36,0,12-11.4,21.6-22.8,21.6-6.6,0-10.2-2.4-14.4-7.2-11.4-13.2-28.2-26.4-48-26.4-18.6,0-33.6,11.4-42.6,33-10.8,27.6-13.2,71.4-13.2,101.4v17.4c0,16.2,0,16.8,10.2,16.8h68.4c6.6,6,2.4,22.8-4.2,25.2Z" transform="translate(-305.79 -85.99)"/></svg>